<svg id="Layer_1" data-name="Layer 1" xmlns="http://www.w3.org/2000/svg" viewBox="0 0 312.07 170.08"><defs><style>.cls-1{fill:#1d1d1b;}.cls-2{fill:none;}</style></defs><title>SOLVE LINK_ICON_TEXT_MONO_B</title><path class="cls-1" d="M123.26,99.7,145,78A37.38,37.38,0,0,0,92.11,25.11L70.38,46.83a36.85,36.85,0,0,0-8.84,14.53l-.1,0a37.32,37.32,0,0,0,8.94,38.3A37.73,37.73,0,0,0,80.72,107l1.42-1.41a12.45,12.45,0,0,0,0-17.62,20.77,20.77,0,0,1,0-29.37l21.72-21.73a20.77,20.77,0,0,1,29.37,29.38l-16.5,16.49a45.92,45.92,0,0,1,1.61,21A37,37,0,0,0,123.26,99.7Z"/><path class="cls-1" d="M89.36,63.1,88,64.45a12.43,12.43,0,0,0,0,17.62,20.78,20.78,0,0,1,0,29.38L66.23,133.22a20.77,20.77,0,0,1-29.37-29.37L53.41,87.3a45.78,45.78,0,0,1-1.6-21,35.11,35.11,0,0,0-4.92,4L25.11,92.1A37.38,37.38,0,0,0,78,145L99.76,123.2a37,37,0,0,0,8.84-14.54l.1,0a37.29,37.29,0,0,0-8.94-38.3A35.46,35.46,0,0,0,89.36,63.1Z"/><path class="cls-1" d="M127.21,123a2.82,2.82,0,0,0-4,4l7.93,7.92a2.81,2.81,0,0,0,4-4Z"/><path class="cls-1" d="M42.69,46.44a2.82,2.82,0,1,0,4-4l-7.93-7.93a2.81,2.81,0,0,0-4,4Z"/><path class="cls-1" d="M102.35,139a2.81,2.81,0,1,0-5.44,1.45l2.89,10.83a2.81,2.81,0,0,0,2.72,2.09,2.67,2.67,0,0,0,.73-.1,2.82,2.82,0,0,0,2-3.45Z"/><path class="cls-1" d="M67.55,30.42a2.81,2.81,0,0,0,2.72,2.09,3,3,0,0,0,.72-.09A2.82,2.82,0,0,0,73,29L70.1,18.14a2.81,2.81,0,1,0-5.44,1.45Z"/><path class="cls-1" d="M151.48,99.76l-10.82-2.92a2.82,2.82,0,0,0-1.47,5.44L150,105.2a2.69,2.69,0,0,0,.74.1,2.82,2.82,0,0,0,.73-5.54Z"/><path class="cls-1" d="M18.42,69.67l10.82,2.92a3.12,3.12,0,0,0,.74.09,2.81,2.81,0,0,0,.73-5.53L19.89,64.23a2.82,2.82,0,1,0-1.47,5.44Z"/><path class="cls-1" d="M169.93,67.23h10V94.55h17.48v8.76H169.93Z"/><path class="cls-1" d="M203.62,67.23h10v36.08h-10Z"/><path class="cls-1" d="M223,67.23h9.33L247.15,86.3V67.23H257v36.08h-8.71L232.87,83.52v19.79H223Z"/><path class="cls-1" d="M266.43,67.23h10V81.87l12.43-14.64h11.85L287.05,82.69l14.12,20.62H289.22l-9.13-13.4-3.66,4v9.38h-10Z"/><rect class="cls-2" width="312.06" height="170.08"/></svg>