<?xml version="1.0" encoding="UTF-8" standalone="no"?>
<svg
   xmlns:dc="http://purl.org/dc/elements/1.1/"
   xmlns:cc="http://creativecommons.org/ns#"
   xmlns:rdf="http://www.w3.org/1999/02/22-rdf-syntax-ns#"
   xmlns:svg="http://www.w3.org/2000/svg"
   xmlns="http://www.w3.org/2000/svg"
   xmlns:sodipodi="http://sodipodi.sourceforge.net/DTD/sodipodi-0.dtd"
   xmlns:inkscape="http://www.inkscape.org/namespaces/inkscape"
   id="Layer_1"
   data-name="Layer 1"
   viewBox="0 0 339.78 170.08"
   version="1.1"
   sodipodi:docname="SOLVE LABS_ICON_MONO_B_1.svg"
   inkscape:version="0.92.1 r15371">
  <metadata
     id="metadata39">
    <rdf:RDF>
      <cc:Work
         rdf:about="">
        <dc:format>image/svg+xml</dc:format>
        <dc:type
           rdf:resource="http://purl.org/dc/dcmitype/StillImage" />
      </cc:Work>
    </rdf:RDF>
  </metadata>
  <sodipodi:namedview
     pagecolor="#ffffff"
     bordercolor="#666666"
     borderopacity="1"
     objecttolerance="10"
     gridtolerance="10"
     guidetolerance="10"
     inkscape:pageopacity="0"
     inkscape:pageshadow="2"
     inkscape:window-width="1920"
     inkscape:window-height="1017"
     id="namedview37"
     showgrid="false"
     inkscape:zoom="3.3433398"
     inkscape:cx="173.71795"
     inkscape:cy="82.939431"
     inkscape:window-x="1912"
     inkscape:window-y="-2"
     inkscape:window-maximized="1"
     inkscape:current-layer="Layer_1" />
  <defs
     id="defs4">
    <style
       id="style2">.cls-1{fill:none;}.cls-2{fill:#1d1d1b;}</style>
  </defs>
  <title
     id="title6">SOLVE LABS_ICON_MONO_B_1</title>
  <rect
     class="cls-1"
     width="339.78"
     height="170.08"
     id="rect8" />
  <path
     class="cls-2"
     d="M144.7,88.85h10v27.32h17.48v8.76H144.7Z"
     id="path10" />
  <path
     class="cls-2"
     d="M192.24,88.59h9.64l15.36,36.34H206.52l-2.58-6.49H190l-2.58,6.49H176.93ZM201,110.65l-4-10.2-4.08,10.2Z"
     id="path12" />
  <path
     class="cls-2"
     d="M223,88.85h18.51c4.53,0,7.73,1.13,9.84,3.2a8.08,8.08,0,0,1,2.32,5.87V98c0,4.18-2.37,6.65-5.56,8,4.38,1.44,7.16,3.91,7.16,8.81v.1c0,6.19-5.05,10-13.66,10H223ZM243.8,100c0-2-1.6-3.09-4.54-3.09h-6.54v6.34H239c3,0,4.8-1,4.8-3.14Zm-3.46,10.26h-7.62v6.65h7.73c3.09,0,4.79-1.19,4.79-3.3v-.1C245.24,111.53,243.69,110.24,240.34,110.24Z"
     id="path14" />
  <path
     class="cls-2"
     d="M259.79,119.57l5.57-6.65a18.66,18.66,0,0,0,11.7,4.33c2.73,0,4.17-.93,4.17-2.47v-.11c0-1.54-1.18-2.32-6.13-3.5-7.68-1.75-13.61-3.92-13.61-11.29v-.1c0-6.7,5.31-11.55,14-11.55,6.13,0,10.93,1.65,14.85,4.79l-5,7.07a17.74,17.74,0,0,0-10.11-3.56c-2.42,0-3.61,1-3.61,2.32V99c0,1.65,1.24,2.37,6.29,3.51,8.25,1.8,13.4,4.48,13.4,11.23v.11c0,7.37-5.82,11.75-14.58,11.75A25.32,25.32,0,0,1,259.79,119.57Z"
     id="path16" />
  <path
     class="cls-2"
     d="M142,76.54l5.57-6.65a18.73,18.73,0,0,0,11.7,4.33c2.73,0,4.18-.93,4.18-2.48v-.1c0-1.55-1.19-2.32-6.14-3.5-7.68-1.76-13.6-3.92-13.6-11.29v-.11c0-6.7,5.3-11.54,14-11.54,6.14,0,10.93,1.65,14.85,4.79l-5,7.06a17.72,17.72,0,0,0-10.1-3.55c-2.43,0-3.61,1-3.61,2.32v.1c0,1.65,1.23,2.37,6.29,3.5,8.24,1.81,13.4,4.49,13.4,11.24v.1c0,7.38-5.83,11.76-14.59,11.76A25.32,25.32,0,0,1,142,76.54Z"
     id="path18" />
  <path
     class="cls-2"
     d="M179,64v-.1c0-10.36,8.35-18.76,19.48-18.76s19.39,8.29,19.39,18.65v.11c0,10.36-8.36,18.76-19.49,18.76S179,74.32,179,64Zm28.61,0v-.1c0-5.26-3.71-9.74-9.23-9.74s-9.17,4.43-9.17,9.63v.11c0,5.2,3.76,9.74,9.27,9.74S207.57,69.17,207.57,64Z"
     id="path20" />
  <path
     class="cls-2"
     d="M225.43,45.82h10V73.14H252.9V81.9H225.43Z"
     id="path22" />
  <path
     class="cls-2"
     d="M252,45.82h11.13l8.2,22.83,8.24-22.83h10.93L275.87,82.16h-9.28Z"
     id="path24" />
  <path
     class="cls-2"
     d="M296.24,45.82h29v8.45H306.14v5.52h17.32v7.88H306.14v5.72h19.38V81.9H296.24Z"
     id="path26" />
  <circle
     class="cls-2"
     cx="83.11"
     cy="81.16"
     r="2.77"
     id="circle28" />
  <path
     class="cls-2"
     d="M72,61.79a2.77,2.77,0,1,0,2.77,2.77A2.77,2.77,0,0,0,72,61.79Z"
     id="path30" />
  <path
     class="cls-2"
     d="M61,78.4a8.31,8.31,0,1,0,8.3,8.3A8.31,8.31,0,0,0,61,78.4Z"
     id="path32" />
  <path
     class="cls-2"
     d="M127,127,91.42,63.83V30.31a8.31,8.31,0,0,0-2.77-16.14H55.43a8.31,8.31,0,0,0-2.77,16.14V63.83L17.11,127A19.39,19.39,0,0,0,34,155.91h76.08A19.38,19.38,0,0,0,127,127ZM73.54,100.85A47.58,47.58,0,0,1,36.44,104l21.4-38a2.68,2.68,0,0,0,.36-1.35V30.78H61a2.77,2.77,0,1,0,0-5.53H55.43a2.77,2.77,0,0,1,0-5.54H88.65a2.77,2.77,0,0,1,0,5.54H83.11a2.77,2.77,0,1,0,0,5.53h2.77V64.56a2.68,2.68,0,0,0,.36,1.35l16.31,29A53.36,53.36,0,0,0,73.54,100.85Z"
     id="path34" />
  <path
     style="opacity:1;fill:#ffffff;fill-opacity:1;stroke:none;stroke-width:0.05652323;stroke-linecap:round;stroke-linejoin:round;stroke-miterlimit:4;stroke-dasharray:0.05652323, 0.22609293000000000;stroke-dashoffset:0;stroke-opacity:1;paint-order:fill markers stroke"
     d="m 44.206731,105.68782 c -2.727322,-0.428 -7.477553,-1.56641 -7.477553,-1.79203 0,-0.0596 4.845454,-8.711502 10.767676,-19.226377 L 58.26453,65.551462 V 48.194227 30.836994 l 2.270791,-0.09841 c 1.989808,-0.08623 2.344502,-0.189603 2.866494,-0.835425 0.875006,-1.082579 0.65955,-3.126048 -0.428256,-4.061739 -0.747346,-0.642839 -1.133441,-0.709316 -4.631558,-0.797451 -2.098936,-0.05288 -4.032867,-0.202116 -4.297624,-0.331631 -1.322398,-0.646893 -1.494988,-2.996405 -0.30735,-4.184043 l 0.655792,-0.655793 h 17.631919 17.63192 l 0.789151,0.789153 c 0.65984,0.65984 0.769434,0.995932 0.66881,2.05107 -0.123227,1.292143 -0.709862,1.990689 -1.89302,2.254145 -0.329013,0.07326 -2.191815,0.168364 -4.139562,0.211337 -3.498768,0.07719 -3.550348,0.0886 -4.289052,0.948557 -0.965789,1.124309 -0.870935,2.827374 0.218123,3.916433 0.647667,0.647665 1.012386,0.746532 2.75395,0.746532 h 2.007418 l 0.0795,17.424793 0.0795,17.424794 8.154879,14.504356 c 7.245215,12.886425 8.079325,14.504768 7.477555,14.508043 -4.140515,0.02252 -9.129801,0.245674 -10.697249,0.478444 -5.739629,0.852348 -11.455518,2.704003 -18.095678,5.862071 -7.927648,3.77039 -12.893801,4.98424 -20.787596,5.08101 -3.194823,0.0392 -5.937212,-0.0968 -7.776655,-0.38542 z M 64.695225,94.272009 c 4.209166,-2.18177 5.830706,-7.157696 3.713344,-11.394911 -1.468418,-2.938568 -4.072496,-4.516992 -7.45212,-4.516992 -4.433362,0 -7.949178,3.234741 -8.302705,7.638936 -0.320017,3.986738 2.083921,7.582077 5.907952,8.835955 1.321976,0.433471 4.832833,0.111212 6.133529,-0.562988 z M 84.558241,83.595362 c 2.476879,-1.280845 1.475426,-5.248393 -1.324753,-5.248393 -1.47499,0 -2.208265,0.455901 -2.725903,1.694787 -1.090883,2.610851 1.49196,4.876759 4.050656,3.553606 z M 73.090456,67.141405 c 1.190612,-0.49747 2.048904,-2.100059 1.754001,-3.275043 -0.306236,-1.220139 -1.512885,-2.105966 -2.8687,-2.105966 -0.99619,0 -1.369137,0.177933 -2.109325,1.006347 -0.750893,0.840396 -0.871108,1.179276 -0.728993,2.055032 0.193483,1.19229 1.160495,2.366882 2.100427,2.551302 0.349695,0.06861 0.673781,0.143082 0.720193,0.165484 0.04641,0.0224 0.555989,-0.156316 1.132397,-0.397156 z"
     id="path4516"
     inkscape:connector-curvature="0" />
</svg>
